# Blender v2.76 (sub 0) OBJ File: ''
# www.blender.org
mtllib player.mtl
o Cube.004_Cube.005
v -1.014485 2.715894 -0.469414
v -1.014485 2.715894 -1.000000
v -3.014484 2.715894 -1.000000
v -3.014484 2.715894 -0.469414
v -1.014484 2.215610 -1.000000
v -3.014484 2.215610 -1.000000
v -1.014484 2.215610 -0.469414
v -3.014484 2.215610 -0.469414
v 2.992596 2.697365 -0.469414
v 2.992596 2.697365 -1.000000
v 0.992596 2.697365 -1.000000
v 0.992596 2.697365 -0.469414
v 2.992596 2.197081 -1.000000
v 0.992596 2.197081 -1.000000
v 2.992596 2.197081 -0.469414
v 0.992596 2.197081 -0.469414
v -1.000000 3.008789 0.238514
v -1.000000 3.008789 -1.761486
v -1.000000 1.008789 -1.761486
v -1.000000 1.008789 0.238514
v 1.000000 3.008789 -1.761486
v 1.000000 1.008789 -1.761486
v 1.000000 3.008789 0.238514
v 1.000000 1.008789 0.238514
v 0.485990 1.000000 -0.469414
v 0.485990 1.000000 -1.000000
v 0.485990 -1.000000 -1.000000
v 0.485990 -1.000000 -0.469414
v 0.986274 1.000000 -1.000000
v 0.986274 -1.000000 -1.000000
v 0.986274 1.000000 -0.469414
v 0.986274 -1.000000 -0.469414
v -1.000000 1.000000 -0.469414
v -1.000000 1.000000 -1.000000
v -1.000000 -1.000000 -1.000000
v -1.000000 -1.000000 -0.469414
v -0.499716 1.000000 -1.000000
v -0.499716 -1.000000 -1.000000
v -0.499716 1.000000 -0.469414
v -0.499716 -1.000000 -0.469414
vn 0.000000 1.000000 0.000000
vn 0.000000 0.000000 -1.000000
vn 0.000000 -1.000000 0.000000
vn 0.000000 -0.000000 1.000000
vn -1.000000 0.000000 0.000000
vn 1.000000 0.000000 0.000000
usemtl None
s 1
f 2//1 3//1 4//1
f 2//2 5//2 6//2
f 7//3 8//3 6//3
f 1//4 4//4 8//4
f 3//5 6//5 8//5
f 7//6 5//6 2//6
f 10//1 11//1 12//1
f 13//2 14//2 11//2
f 15//3 16//3 14//3
f 9//4 12//4 16//4
f 11//5 14//5 16//5
f 15//6 13//6 10//6
f 18//5 19//5 20//5
f 21//2 22//2 19//2
f 23//6 24//6 22//6
f 17//4 20//4 24//4
f 19//3 22//3 24//3
f 21//1 18//1 17//1
f 26//5 27//5 28//5
f 29//2 30//2 27//2
f 31//6 32//6 30//6
f 25//4 28//4 32//4
f 27//3 30//3 32//3
f 29//1 26//1 25//1
f 34//5 35//5 36//5
f 37//2 38//2 35//2
f 39//6 40//6 38//6
f 33//4 36//4 40//4
f 35//3 38//3 40//3
f 37//1 34//1 33//1
f 1//1 2//1 4//1
f 3//2 2//2 6//2
f 5//3 7//3 6//3
f 7//4 1//4 8//4
f 4//5 3//5 8//5
f 1//6 7//6 2//6
f 9//1 10//1 12//1
f 10//2 13//2 11//2
f 13//3 15//3 14//3
f 15//4 9//4 16//4
f 12//5 11//5 16//5
f 9//6 15//6 10//6
f 17//5 18//5 20//5
f 18//2 21//2 19//2
f 21//6 23//6 22//6
f 23//4 17//4 24//4
f 20//3 19//3 24//3
f 23//1 21//1 17//1
f 25//5 26//5 28//5
f 26//2 29//2 27//2
f 29//6 31//6 30//6
f 31//4 25//4 32//4
f 28//3 27//3 32//3
f 31//1 29//1 25//1
f 33//5 34//5 36//5
f 34//2 37//2 35//2
f 37//6 39//6 38//6
f 39//4 33//4 40//4
f 36//3 35//3 40//3
f 39//1 37//1 33//1
