# Blender v2.76 (sub 0) OBJ File: ''
# www.blender.org
mtllib player.mtl
o Cube.004_Cube.005
v -3.014484 2.715894 -0.469414
v -1.014485 2.715894 -0.469414
v -3.014484 2.715894 -1.000000
v -1.014485 2.715894 -1.000000
v -3.014484 2.215610 -0.469414
v -1.014484 2.215610 -0.469414
v -3.014484 2.215610 -1.000000
v -1.014484 2.215610 -1.000000
v 0.992596 2.697365 -0.469414
v 2.992596 2.697365 -0.469414
v 0.992596 2.697365 -1.000000
v 2.992596 2.697365 -1.000000
v 0.992596 2.197081 -0.469414
v 2.992596 2.197081 -0.469414
v 0.992596 2.197081 -1.000000
v 2.992596 2.197081 -1.000000
v -1.000000 1.008789 0.238514
v -1.000000 3.008789 0.238514
v -1.000000 1.008789 -1.761486
v -1.000000 3.008789 -1.761486
v 1.000000 1.008789 0.238514
v 1.000000 3.008789 0.238514
v 1.000000 1.008789 -1.761486
v 1.000000 3.008789 -1.761486
v 0.485990 -1.000000 -0.469414
v 0.485990 1.000000 -0.469414
v 0.485990 -1.000000 -1.000000
v 0.485990 1.000000 -1.000000
v 0.986274 -1.000000 -0.469414
v 0.986274 1.000000 -0.469414
v 0.986274 -1.000000 -1.000000
v 0.986274 1.000000 -1.000000
v -1.000000 -1.000000 -0.469414
v -1.000000 1.000000 -0.469414
v -1.000000 -1.000000 -1.000000
v -1.000000 1.000000 -1.000000
v -0.499716 -1.000000 -0.469414
v -0.499716 1.000000 -0.469414
v -0.499716 -1.000000 -1.000000
v -0.499716 1.000000 -1.000000
vn -0.000000 1.000000 0.000000
vn 0.000000 0.000000 -1.000000
vn 0.000000 -1.000000 0.000000
vn 0.000000 0.000000 1.000000
vn -1.000000 0.000000 0.000000
vn 1.000000 0.000000 0.000000
usemtl None
s off
f 2//1 4//1 3//1 1//1
f 4//2 8//2 7//2 3//2
f 8//3 6//3 5//3 7//3
f 6//4 2//4 1//4 5//4
f 1//5 3//5 7//5 5//5
f 6//6 8//6 4//6 2//6
f 10//1 12//1 11//1 9//1
f 12//2 16//2 15//2 11//2
f 16//3 14//3 13//3 15//3
f 14//4 10//4 9//4 13//4
f 9//5 11//5 15//5 13//5
f 14//6 16//6 12//6 10//6
f 18//5 20//5 19//5 17//5
f 20//2 24//2 23//2 19//2
f 24//6 22//6 21//6 23//6
f 22//4 18//4 17//4 21//4
f 17//3 19//3 23//3 21//3
f 22//1 24//1 20//1 18//1
f 26//5 28//5 27//5 25//5
f 28//2 32//2 31//2 27//2
f 32//6 30//6 29//6 31//6
f 30//4 26//4 25//4 29//4
f 25//3 27//3 31//3 29//3
f 30//1 32//1 28//1 26//1
f 34//5 36//5 35//5 33//5
f 36//2 40//2 39//2 35//2
f 40//6 38//6 37//6 39//6
f 38//4 34//4 33//4 37//4
f 33//3 35//3 39//3 37//3
f 38//1 40//1 36//1 34//1
